<?xml version="1.0" standalone="no"?>
<!DOCTYPE svg PUBLIC "-//W3C//DTD SVG 20010904//EN"
 "http://www.w3.org/TR/2001/REC-SVG-20010904/DTD/svg10.dtd">
<svg version="1.0" xmlns="http://www.w3.org/2000/svg"
 width="438.000000pt" height="438.000000pt" viewBox="0 0 438.000000 438.000000"
 preserveAspectRatio="xMidYMid meet">
<metadata>
Created by potrace 1.11, written by Peter Selinger 2001-2013
</metadata>
<g transform="translate(0.000000,438.000000) scale(0.100000,-0.100000)"
fill="#000000" stroke="none">
<path d="M1945 4074 c-22 -2 -116 -11 -210 -19 -226 -22 -494 -72 -605 -114
-30 -12 -63 -21 -72 -21 -35 0 -304 -130 -344 -166 -92 -83 -122 -116 -144
-160 -24 -47 -25 -59 -28 -250 l-3 -202 -57 -7 c-70 -8 -123 -42 -154 -99 -23
-40 -23 -45 -23 -371 0 -325 0 -331 23 -373 32 -59 100 -102 164 -102 l48 0 2
-622 3 -623 30 -49 c37 -60 97 -104 155 -114 l45 -8 6 -154 c6 -166 11 -187
66 -246 51 -54 124 -74 277 -74 204 0 277 30 330 133 28 55 30 67 34 203 l5
144 702 0 702 0 5 -144 c4 -136 6 -148 34 -203 53 -103 126 -133 330 -133 153
0 226 20 277 74 55 59 60 80 66 246 l6 155 55 5 c71 7 114 31 148 82 l27 42 3
643 2 643 48 0 c64 0 132 43 164 102 23 42 23 48 23 373 0 326 0 331 -23 371
-31 57 -84 91 -154 99 l-57 7 -3 202 c-4 257 -5 259 -172 410 -37 33 -308 166
-339 166 -7 0 -55 13 -107 29 -131 41 -326 81 -445 92 -55 5 -136 14 -180 19
-80 11 -585 21 -660 14z m1290 -718 c60 -29 106 -76 129 -134 14 -37 16 -103
16 -561 0 -572 1 -561 -63 -629 -18 -19 -53 -45 -79 -58 l-47 -24 -996 0 -996
0 -47 24 c-26 13 -61 39 -79 58 -64 68 -63 57 -63 629 0 458 2 524 16 561 23
58 69 105 129 134 l50 24 990 0 990 0 50 -24z m-2015 -1767 c60 -27 98 -64
126 -124 41 -86 24 -186 -44 -259 -38 -40 -118 -76 -172 -76 -27 0 -66 10 -95
24 -191 90 -191 342 0 432 62 29 125 30 185 3z m2114 9 c56 -17 141 -100 155
-153 35 -127 -15 -238 -134 -299 -88 -46 -185 -26 -266 54 -52 51 -69 95 -69
175 1 156 159 269 314 223z"/>
</g>
</svg>
